<svg width="338" height="100" viewBox="0 0 338 100" fill="none" xmlns="http://www.w3.org/2000/svg">
<path d="M100 50C100 77.6142 77.6142 100 50 100C22.3858 100 0 77.6142 0 50C0 22.3858 22.3858 0 50 0C77.6142 0 100 22.3858 100 50Z" fill="black"/>
<path fill-rule="evenodd" clip-rule="evenodd" d="M56.093 15.2251C54.361 14.5237 52.0031 14.3593 49.5148 15.4604C48.4479 15.9325 47.8311 16.6715 47.5091 17.5725C47.1786 18.4975 47.1478 19.6298 47.346 20.8645C47.7432 23.3382 49.0246 26.0115 50.1666 27.7244L50.1708 27.7307L50.1749 27.7371C51.3906 29.6534 51.2414 31.2951 50.4302 32.3668C50.0438 32.8773 49.5236 33.2299 48.9966 33.3933C48.489 33.5506 47.8618 33.5597 47.3758 33.1932L47.3392 33.1656L47.3068 33.1333C46.0612 31.8932 45.0095 31.3942 43.8599 31.1815C42.9266 31.0088 41.935 31.0203 40.6659 31.035C40.2811 31.0394 39.8709 31.0442 39.429 31.0442C38.9208 31.0442 38.2012 31.353 37.3031 32.0212C36.4298 32.671 35.4853 33.5861 34.5461 34.6261C32.6696 36.704 30.8792 39.2073 29.807 40.876L29.8057 40.878L29.8044 40.8801C28.0656 43.5433 26.4344 47.4243 25.4935 51.6437C24.5529 55.8612 24.3152 60.3582 25.3033 64.2723C25.5286 65.0637 25.7631 65.4802 25.9484 65.6701C26.0322 65.756 26.0875 65.7765 26.1113 65.7825C26.1331 65.788 26.1737 65.7929 26.2511 65.7663C26.4355 65.7028 26.722 65.4972 27.0996 65.0493C27.4639 64.6172 27.8589 64.0256 28.2771 63.3004C29.7243 60.791 31.3006 56.9546 32.7503 53.4264C32.763 53.3954 32.7758 53.3643 32.7885 53.3333C32.9635 52.767 33.1482 52.2191 33.3353 51.7003C33.4068 51.5021 33.4769 51.3374 33.5427 51.2141C33.5729 51.1575 33.6171 51.0809 33.6755 51.0106C33.7009 50.98 33.7614 50.9102 33.8564 50.851C33.9358 50.8015 34.2215 50.6533 34.5436 50.8298C34.821 50.9818 34.8754 51.2492 34.8858 51.3032C34.903 51.3927 34.8997 51.4688 34.8969 51.5077C34.8909 51.5926 34.8729 51.6746 34.8563 51.7388C34.821 51.8753 34.7618 52.045 34.6809 52.2404C34.4734 52.7413 34.261 53.2582 34.0445 53.7852C33.4316 55.7813 32.9618 57.9581 32.9396 59.832C33.2092 60.4356 33.4613 60.834 33.6848 61.0815C33.9191 61.3411 34.0836 61.3945 34.1756 61.403C34.2712 61.4118 34.4234 61.3844 34.6553 61.2165C34.89 61.0465 35.1566 60.767 35.4521 60.3698C36.0432 59.5752 36.6571 58.4379 37.3015 57.1419C37.5572 56.6276 37.82 56.0834 38.0863 55.5321C38.4753 54.7265 38.8716 53.9059 39.2635 53.142C39.268 53.1333 39.2702 53.1255 39.2727 53.1153C39.2727 53.1153 39.2752 53.1055 39.2776 53.0966C39.2788 53.0925 39.2823 53.0796 39.2875 53.0638C39.29 53.0559 39.2951 53.0408 39.3024 53.0223C39.3073 53.0102 39.3249 52.9661 39.357 52.9148C39.3723 52.8904 39.4081 52.8363 39.4679 52.7807C39.5201 52.7321 39.6641 52.6137 39.8901 52.6029C40.1523 52.5904 40.3351 52.7275 40.426 52.8323C40.5052 52.9238 40.5392 53.0139 40.5513 53.0486C40.5772 53.1224 40.5836 53.1842 40.5851 53.1988C40.5876 53.2224 40.5884 53.2422 40.5887 53.2515C40.5892 53.2706 40.5888 53.2859 40.5886 53.2909C40.5885 53.2978 40.5882 53.3036 40.5881 53.3068C40.587 53.3305 40.5861 53.3393 40.585 53.3753C40.5733 53.7625 40.651 54.8407 40.9247 55.7948C41.062 56.2735 41.2333 56.6649 41.4265 56.919C41.6117 57.1625 41.7554 57.2086 41.8744 57.2031L41.8897 57.2024H41.905C42.3518 57.2024 42.9368 56.9067 43.597 56.2462C44.2371 55.6057 44.8533 54.7152 45.3584 53.7566C45.863 52.7987 46.2379 51.8084 46.416 50.9852C46.5051 50.5728 46.54 50.2244 46.5273 49.9548C46.5142 49.6743 46.4531 49.5482 46.4215 49.5071L46.3899 49.4659L46.365 49.4202C46.3234 49.344 46.2824 49.266 46.2406 49.1865C46.1281 48.9725 46.0104 48.7486 45.8636 48.5252C45.6574 48.2112 45.4765 48.0349 45.3388 47.972C45.2863 47.948 45.2482 47.9442 45.2088 47.9505C45.1638 47.9577 45.0717 47.9859 44.93 48.0986C44.6303 48.337 44.212 48.8708 43.6983 49.9381L42.4969 49.3599C43.0381 48.2353 43.5625 47.4827 44.0999 47.0552C44.3769 46.8349 44.6769 46.6852 44.9987 46.6338C45.3259 46.5816 45.629 46.6387 45.893 46.7593C46.3884 46.9857 46.7418 47.4335 46.978 47.7931C47.1644 48.0768 47.3287 48.3897 47.4455 48.6121C47.4711 48.6609 47.4944 48.7053 47.5152 48.7442C47.7542 49.083 47.8408 49.5002 47.8592 49.8923C47.879 50.3145 47.8235 50.7846 47.7192 51.267C47.5102 52.2333 47.0859 53.3381 46.538 54.3781C45.9904 55.4174 45.3006 56.4278 44.54 57.1887C43.8033 57.9258 42.8984 58.5297 41.9198 58.5357C41.2232 58.5617 40.7086 58.1776 40.3652 57.7261C40.0273 57.2817 39.7998 56.7089 39.643 56.1624C39.5942 55.9921 39.5507 55.8189 39.5122 55.6459C39.442 55.7909 39.3718 55.9363 39.3017 56.0817C39.0349 56.6344 38.7675 57.1883 38.4954 57.7355C37.8508 59.0319 37.1913 60.2657 36.522 61.1656C36.1872 61.6156 35.8269 62.0143 35.4374 62.2963C35.0453 62.5803 34.5762 62.7789 34.0531 62.7307C33.5264 62.6821 33.0747 62.3954 32.6951 61.975C32.3197 61.5592 31.9793 60.9757 31.6598 60.2334L31.6054 60.1072V59.9698C31.6054 59.8329 31.6077 59.6947 31.612 59.5554C30.8791 61.2025 30.142 62.7357 29.4321 63.9665C28.9945 64.7253 28.5548 65.3919 28.119 65.9088C27.6966 66.4098 27.2177 66.8438 26.6848 67.0271C26.4036 67.1238 26.0977 67.1538 25.7867 67.0757C25.4776 66.9982 25.2138 66.8265 24.9939 66.6011C24.5725 66.1691 24.2624 65.4889 24.018 64.627L24.0154 64.6179L24.013 64.6087C22.955 60.4267 23.2222 55.7027 24.1921 51.3534C25.1621 47.0037 26.8481 42.97 28.6865 40.1533C29.7858 38.4427 31.6189 35.8781 33.5566 33.7325C34.5247 32.6604 35.5354 31.6746 36.5072 30.9515C37.4543 30.2468 38.4698 29.7109 39.429 29.7109C39.8178 29.7109 40.1949 29.7063 40.5613 29.7018C41.8626 29.686 43.029 29.6718 44.1024 29.8704C45.5276 30.1341 46.8023 30.7648 48.1974 32.1388C48.2446 32.1594 48.3728 32.1907 48.6018 32.1197C48.8574 32.0405 49.1457 31.8546 49.3671 31.5621C49.7709 31.0286 50.0343 30.0084 49.0529 28.4575C47.8414 26.6385 46.4652 23.7896 46.0296 21.0758C45.8111 19.7151 45.8205 18.3357 46.2535 17.1238C46.6951 15.888 47.5652 14.865 48.9752 14.2411C51.8077 12.9878 54.5413 13.1583 56.5934 13.9893C57.6166 14.4036 58.4837 14.9875 59.1104 15.6566C59.7118 16.2988 60.1294 17.0626 60.182 17.8575C60.308 18.3742 60.453 19.1496 60.497 19.8893C60.5199 20.2735 60.5173 20.6736 60.4602 21.0336C60.4252 21.2538 60.363 21.5051 60.242 21.7355C60.2803 21.8019 60.3308 21.8839 60.3957 21.9829C60.6489 22.3688 61.0559 22.9144 61.5916 23.5915C62.6592 24.9409 64.1948 26.7581 65.9206 28.755C68.2417 31.4406 70.8916 34.4334 73.1885 37.0277C74.3076 38.2917 75.343 39.461 76.2157 40.4541C76.5383 40.8212 76.4507 41.2951 76.2033 41.5634C75.9594 41.8278 75.5068 41.9536 75.1152 41.6837L65.4507 35.0224L56.0175 27.4204C55.753 27.2072 55.5193 26.8477 55.5478 26.4C55.5767 25.9443 55.7325 25.355 56.1661 24.8699C56.6176 24.3649 57.3031 24.0482 58.2343 24.0482V25.3815C57.626 25.3815 57.3233 25.5761 57.1602 25.7585C56.9978 25.9402 56.9126 26.1799 56.8855 26.4074L66.2485 33.9529L72.5008 38.2623C72.401 38.1496 72.3004 38.036 72.1992 37.9217C69.8993 35.3241 67.2378 32.3181 64.9118 29.6268C63.1839 27.6275 61.6325 25.7921 60.546 24.4188C60.0046 23.7346 59.5677 23.1514 59.2809 22.7143C59.1403 22.4999 59.0185 22.295 58.941 22.1179C58.9039 22.0332 58.8595 21.9163 58.8417 21.7867C58.8275 21.6827 58.8049 21.3804 59.0493 21.137L59.0498 21.1361C59.0564 21.126 59.1078 21.0481 59.1433 20.8245C59.1795 20.5969 59.186 20.3028 59.1661 19.9686C59.1264 19.3023 58.9883 18.5775 58.8731 18.1185L58.8561 18.0509L58.8535 17.9812C58.8385 17.5847 58.6209 17.0845 58.1372 16.568C57.6601 16.0586 56.962 15.577 56.093 15.2251ZM54.4496 21.2325C54.0766 21.4489 53.6085 21.6015 53.0123 21.6656C52.6462 21.7049 52.3467 21.4008 52.3467 21.0326V21.0326C52.3467 20.6645 52.6472 20.3754 53.0115 20.322C53.3764 20.2685 53.6179 20.1736 53.7804 20.0793C53.7861 20.0759 53.7918 20.0726 53.7974 20.0692C54.1131 19.8798 54.5083 19.7466 54.8236 19.9366V19.9366C55.139 20.1267 55.25 20.5472 54.9929 20.8108C54.8503 20.957 54.6731 21.1028 54.4496 21.2325ZM56.7208 35.1961C56.3263 36.8454 55.6621 38.6217 54.9549 40.4143C54.9559 40.4116 54.9546 40.4126 54.9555 40.4191C54.9564 40.4262 54.9596 40.4364 54.9666 40.4468C57.0334 43.499 56.7835 47.208 55.2613 50.506C53.7394 53.8033 50.9087 56.7923 47.6084 58.5278C47.6044 58.5299 47.6009 58.5332 47.6009 58.5332L47.5999 58.5345L42.9621 69.9068L45.3402 83.2356L50.685 85.3813L50.4366 86.6666H44.2902V85.3333H46.9865L44.8435 84.473C44.4167 84.3017 44.1084 83.9225 44.0276 83.4698L41.6495 70.141C41.6052 69.8926 41.6323 69.6369 41.7275 69.4033L46.3653 58.031C46.4873 57.7317 46.7112 57.4931 46.9879 57.3476C50.0307 55.7476 52.6528 52.9759 54.0507 49.9473C55.4481 46.9196 55.5848 43.7377 53.8626 41.1943C53.6197 40.8357 53.5425 40.3613 53.7146 39.925C54.4218 38.1324 55.0537 36.4342 55.4241 34.8859C55.796 33.3308 55.8842 32.0032 55.5753 30.9268L56.8569 30.559C57.259 31.9603 57.1137 33.5536 56.7208 35.1961Z" fill="#F8ECD2"/>
<path d="M109.857 50.4827C109.612 50.4827 109.408 50.4031 109.245 50.2439C109.082 50.0847 109 49.8858 109 49.647V46.9012C109 46.6624 109.082 46.4634 109.245 46.3042C109.408 46.1451 109.612 46.0655 109.857 46.0655H113.325V26.4467H109.857C109.612 26.4467 109.408 26.3671 109.245 26.208C109.082 26.0488 109 25.8498 109 25.611V22.8652C109 22.6264 109.082 22.4275 109.245 22.2683C109.408 22.1091 109.612 22.0295 109.857 22.0295H121.772C122.017 22.0295 122.221 22.1091 122.384 22.2683C122.547 22.4275 122.629 22.6264 122.629 22.8652V25.611C122.629 25.8498 122.547 26.0488 122.384 26.208C122.221 26.3671 122.017 26.4467 121.772 26.4467H118.304V46.0655H121.772C122.017 46.0655 122.221 46.1451 122.384 46.3042C122.547 46.4634 122.629 46.6624 122.629 46.9012V49.647C122.629 49.8858 122.547 50.0847 122.384 50.2439C122.221 50.4031 122.017 50.4827 121.772 50.4827H109.857Z" fill="black"/>
<path d="M134.639 50.7214C134.013 50.7214 133.591 50.4429 133.374 49.8857L125.825 28.9538C125.77 28.7946 125.743 28.6752 125.743 28.5956C125.743 28.3303 125.838 28.1181 126.029 27.9589C126.219 27.7732 126.464 27.6804 126.763 27.6804H129.62C129.892 27.6804 130.136 27.7599 130.354 27.9191C130.599 28.0783 130.762 28.2905 130.844 28.5558L136.353 44.5533L141.861 28.5558C141.943 28.2905 142.093 28.0783 142.31 27.9191C142.555 27.7599 142.813 27.6804 143.085 27.6804H145.738C146.037 27.6804 146.282 27.7732 146.472 27.9589C146.663 28.1181 146.758 28.3303 146.758 28.5956C146.758 28.6752 146.731 28.7946 146.676 28.9538L139.127 49.8857C139.018 50.151 138.842 50.3633 138.597 50.5225C138.379 50.6816 138.134 50.7612 137.862 50.7612L134.639 50.7214Z" fill="black"/>
<path d="M159.517 51C157.749 51 156.117 50.5888 154.621 49.7664C153.152 48.9174 151.982 47.7766 151.111 46.344C150.241 44.9114 149.806 43.3594 149.806 41.6881V36.475C149.806 34.8036 150.241 33.2516 151.111 31.819C151.982 30.3864 153.152 29.2589 154.621 28.4365C156.117 27.5875 157.749 27.163 159.517 27.163C161.286 27.163 162.904 27.5875 164.373 28.4365C165.869 29.2589 167.053 30.3864 167.923 31.819C168.794 33.2516 169.229 34.8036 169.229 36.475V41.6881C169.229 43.3594 168.794 44.9114 167.923 46.344C167.053 47.7766 165.869 48.9174 164.373 49.7664C162.904 50.5888 161.286 51 159.517 51ZM159.517 46.3838C160.85 46.3838 161.979 45.9328 162.904 45.0308C163.856 44.1023 164.332 42.988 164.332 41.6881V36.475C164.332 35.175 163.856 34.074 162.904 33.172C161.979 32.2435 160.85 31.7792 159.517 31.7792C158.184 31.7792 157.042 32.2435 156.09 33.172C155.165 34.074 154.702 35.175 154.702 36.475V41.6881C154.702 42.988 155.165 44.1023 156.09 45.0308C157.042 45.9328 158.184 46.3838 159.517 46.3838Z" fill="black"/>
<path d="M192.439 50.9602C190.97 50.9602 189.515 50.7347 188.073 50.2837C186.658 49.8062 185.339 49.1562 184.115 48.3338C183.979 48.2542 183.884 48.1215 183.829 47.9358C183.775 47.7236 183.788 47.5379 183.87 47.3787L185.298 44.8716C185.461 44.5533 185.72 44.3941 186.074 44.3941C186.291 44.3941 186.495 44.4472 186.686 44.5533C188.726 45.8002 190.63 46.4236 192.398 46.4236C193.84 46.4236 194.969 46.092 195.785 45.4288C196.629 44.739 197.05 43.8502 197.05 42.7625C197.05 42.0462 196.846 41.4493 196.438 40.9718C196.03 40.4677 195.486 40.0432 194.806 39.6983C194.126 39.3534 193.133 38.929 191.827 38.4249L190.644 37.9474C188.794 37.178 187.23 36.1964 185.951 35.0026C184.7 33.8087 184.074 32.0578 184.074 29.7497C184.074 28.1314 184.441 26.6988 185.176 25.4519C185.938 24.205 186.985 23.2366 188.318 22.5469C189.651 21.8571 191.188 21.5122 192.929 21.5122C194.371 21.5122 195.799 21.751 197.213 22.2285C198.655 22.6795 199.947 23.3162 201.09 24.1386C201.226 24.2182 201.321 24.3641 201.376 24.5764C201.43 24.7621 201.416 24.9345 201.335 25.0937L199.988 27.6008C199.825 27.9191 199.567 28.0783 199.213 28.0783C198.995 28.0783 198.791 28.0252 198.601 27.9191C197.54 27.2559 196.52 26.7783 195.54 26.4865C194.588 26.1947 193.731 26.0488 192.97 26.0488C191.746 26.0488 190.78 26.3804 190.072 27.0436C189.365 27.6804 189.012 28.5028 189.012 29.5109C189.012 30.5456 189.392 31.4078 190.154 32.0976C190.943 32.7608 192.194 33.4373 193.908 34.1271C194.153 34.2067 195.078 34.5781 196.683 35.2413C198.315 35.878 199.607 36.8199 200.56 38.0668C201.512 39.3136 201.988 40.7861 201.988 42.484C201.988 44.1288 201.58 45.6012 200.764 46.9012C199.975 48.1746 198.859 49.1694 197.417 49.8857C195.976 50.6021 194.316 50.9602 192.439 50.9602Z" fill="black"/>
<path d="M216.148 50.4827C214.026 50.4827 212.299 49.846 210.966 48.5725C209.66 47.2991 209.007 45.6277 209.007 43.5584V32.1374H206.191C205.946 32.1374 205.742 32.0578 205.579 31.8986C205.416 31.7394 205.334 31.5404 205.334 31.3017V28.516C205.334 28.2773 205.416 28.0783 205.579 27.9191C205.742 27.7599 205.946 27.6804 206.191 27.6804H209.007V23.3825C209.007 23.1438 209.089 22.9448 209.252 22.7856C209.415 22.6264 209.619 22.5469 209.864 22.5469H213.047C213.292 22.5469 213.496 22.6264 213.659 22.7856C213.822 22.9448 213.904 23.1438 213.904 23.3825V27.6804H220.8C221.045 27.6804 221.249 27.7599 221.412 27.9191C221.575 28.0783 221.657 28.2773 221.657 28.516V31.3415C221.657 31.5802 221.575 31.7792 221.412 31.9384C221.249 32.0976 221.045 32.1772 220.8 32.1772H213.904V43.3594C213.904 44.1553 214.135 44.792 214.597 45.2696C215.087 45.7471 215.726 45.9859 216.515 45.9859L220.8 46.0257C221.045 46.0257 221.249 46.1053 221.412 46.2644C221.575 46.4236 221.657 46.6226 221.657 46.8614V49.647C221.657 49.8858 221.575 50.0847 221.412 50.2439C221.249 50.4031 221.045 50.4827 220.8 50.4827H216.148Z" fill="black"/>
<path d="M235.151 51C233.383 51 231.751 50.5888 230.255 49.7664C228.786 48.9174 227.616 47.7766 226.745 46.344C225.875 44.9114 225.439 43.3594 225.439 41.6881V36.475C225.439 34.8036 225.875 33.2516 226.745 31.819C227.616 30.3864 228.786 29.2589 230.255 28.4365C231.751 27.5875 233.383 27.163 235.151 27.163C236.919 27.163 238.538 27.5875 240.007 28.4365C241.503 29.2589 242.687 30.3864 243.557 31.819C244.428 33.2516 244.863 34.8036 244.863 36.475V41.6881C244.863 43.3594 244.428 44.9114 243.557 46.344C242.687 47.7766 241.503 48.9174 240.007 49.7664C238.538 50.5888 236.919 51 235.151 51ZM235.151 46.3838C236.484 46.3838 237.613 45.9328 238.538 45.0308C239.49 44.1023 239.966 42.988 239.966 41.6881V36.475C239.966 35.175 239.49 34.074 238.538 33.172C237.613 32.2435 236.484 31.7792 235.151 31.7792C233.818 31.7792 232.676 32.2435 231.724 33.172C230.799 34.074 230.336 35.175 230.336 36.475V41.6881C230.336 42.988 230.799 44.1023 231.724 45.0308C232.676 45.9328 233.818 46.3838 235.151 46.3838Z" fill="black"/>
<path d="M249.725 50.4827C249.48 50.4827 249.276 50.4031 249.113 50.2439C248.95 50.0847 248.868 49.8858 248.868 49.647V46.7022C248.868 46.4634 248.95 46.2644 249.113 46.1053C249.276 45.9461 249.48 45.8665 249.725 45.8665H252.826V32.1772H249.317C249.072 32.1772 248.868 32.0976 248.705 31.9384C248.542 31.7792 248.46 31.5802 248.46 31.3415V28.516C248.46 28.2773 248.542 28.0783 248.705 27.9191C248.868 27.7599 249.072 27.6804 249.317 27.6804H255.642C256.131 27.6804 256.539 27.8528 256.866 28.1977C257.22 28.516 257.396 28.914 257.396 29.3915V30.8241L259.6 29.113C260.416 28.4763 261.123 28.0385 261.722 27.7997C262.32 27.5344 263.028 27.4018 263.844 27.4018H265.109C265.353 27.4018 265.557 27.4814 265.721 27.6406C265.884 27.7997 265.965 27.9987 265.965 28.2375V31.3017C265.965 31.5404 265.884 31.7394 265.721 31.8986C265.557 32.0578 265.353 32.1374 265.109 32.1374H264.048C263.34 32.1374 262.728 32.2567 262.211 32.4955C261.695 32.7343 260.906 33.2649 259.845 34.0873L257.6 35.8383V45.8665H261.64C261.885 45.8665 262.089 45.9461 262.252 46.1053C262.415 46.2644 262.497 46.4634 262.497 46.7022V49.647C262.497 49.8858 262.415 50.0847 262.252 50.2439C262.089 50.4031 261.885 50.4827 261.64 50.4827H249.725Z" fill="black"/>
<path d="M271.107 50.4827C270.862 50.4827 270.658 50.4031 270.495 50.2439C270.332 50.0847 270.25 49.8858 270.25 49.647V20.8357C270.25 20.5969 270.332 20.3979 270.495 20.2388C270.658 20.0796 270.862 20 271.107 20H274.29C274.535 20 274.739 20.0796 274.902 20.2388C275.065 20.3979 275.147 20.5969 275.147 20.8357V35.7985H276.534L283.838 28.1579C284.138 27.8395 284.505 27.6804 284.94 27.6804H288.653C288.898 27.6804 289.102 27.7599 289.266 27.9191C289.429 28.0518 289.51 28.2242 289.51 28.4365C289.51 28.6222 289.429 28.8211 289.266 29.0334L280.492 37.9474L289.796 49.249C289.932 49.4347 290 49.6072 290 49.7664C290 49.9786 289.932 50.151 289.796 50.2837C289.66 50.4163 289.47 50.4827 289.225 50.4827H285.593C285.076 50.4827 284.654 50.2837 284.328 49.8857L276.493 40.2555H275.147V49.647C275.147 49.8858 275.065 50.0847 274.902 50.2439C274.739 50.4031 274.535 50.4827 274.29 50.4827H271.107Z" fill="black"/>
<path d="M108.286 79.7306C108.205 79.7306 108.136 79.7029 108.082 79.6477C108.027 79.5924 108 79.5233 108 79.4404V66.0725C108 65.8653 108.068 65.6926 108.205 65.5544C108.354 65.4024 108.532 65.3264 108.736 65.3264H112.295C113.058 65.3264 113.754 65.513 114.381 65.886C115.022 66.2591 115.526 66.7703 115.894 67.4197C116.262 68.0553 116.446 68.753 116.446 69.513C116.446 70.5216 116.133 71.4059 115.506 72.1658C114.878 72.9257 114.088 73.4024 113.133 73.5959L116.528 79.1503C116.569 79.2055 116.589 79.2746 116.589 79.3575C116.589 79.468 116.549 79.5579 116.467 79.6269C116.399 79.696 116.31 79.7306 116.201 79.7306H115.158C115.022 79.7306 114.919 79.6684 114.851 79.544L111.272 73.6788H109.677V79.4404C109.677 79.5233 109.65 79.5924 109.595 79.6477C109.541 79.7029 109.472 79.7306 109.391 79.7306H108.286ZM112.172 72.0829C112.908 72.0829 113.515 71.8411 113.992 71.3575C114.483 70.8739 114.728 70.266 114.728 69.5337C114.728 68.7737 114.483 68.152 113.992 67.6684C113.515 67.171 112.908 66.9223 112.172 66.9223H109.677V72.0829H112.172Z" fill="black"/>
<path d="M123.926 79.7306C123.122 79.7306 122.379 79.5302 121.697 79.1295C121.016 78.7288 120.477 78.1831 120.082 77.4922C119.686 76.7876 119.489 76.0276 119.489 75.2124V72.2487C119.489 71.4335 119.686 70.6805 120.082 69.9896C120.477 69.285 121.016 68.7323 121.697 68.3316C122.379 67.9309 123.122 67.7306 123.926 67.7306C124.731 67.7306 125.474 67.9309 126.156 68.3316C126.837 68.7323 127.376 69.285 127.771 69.9896C128.167 70.6805 128.364 71.4335 128.364 72.2487V73.658C128.364 73.8653 128.289 74.0449 128.139 74.1969C128.003 74.3351 127.833 74.4041 127.628 74.4041H121.084V75.3161C121.084 75.8411 121.206 76.3247 121.452 76.7668C121.711 77.209 122.059 77.5613 122.495 77.8238C122.931 78.0725 123.408 78.1969 123.926 78.1969H126.892C126.974 78.1969 127.042 78.2245 127.096 78.2798C127.151 78.3351 127.178 78.4041 127.178 78.487V79.4404C127.178 79.5233 127.151 79.5924 127.096 79.6477C127.042 79.7029 126.974 79.7306 126.892 79.7306H123.926ZM126.769 72.9119V72.1451C126.769 71.62 126.64 71.1364 126.381 70.6943C126.135 70.2522 125.794 69.9067 125.358 69.658C124.922 69.3955 124.445 69.2642 123.926 69.2642C123.408 69.2642 122.931 69.3955 122.495 69.658C122.059 69.9067 121.711 70.2522 121.452 70.6943C121.206 71.1364 121.084 71.62 121.084 72.1451V72.9119H126.769Z" fill="black"/>
<path d="M134.881 79.9378C134.254 79.9378 133.64 79.8549 133.04 79.6891C132.44 79.5233 131.922 79.2815 131.486 78.9637C131.431 78.9361 131.391 78.8946 131.363 78.8394C131.35 78.7703 131.356 78.7012 131.384 78.6321L131.813 77.7617C131.881 77.6511 131.97 77.5959 132.079 77.5959C132.106 77.5959 132.161 77.6097 132.243 77.6373C133.143 78.19 134.049 78.4663 134.963 78.4663C135.685 78.4663 136.251 78.3074 136.66 77.9896C137.083 77.658 137.294 77.1952 137.294 76.601C137.294 76.2418 137.199 75.9516 137.008 75.7306C136.831 75.4957 136.592 75.3092 136.292 75.171C135.992 75.019 135.522 74.8187 134.881 74.5699C134.049 74.2522 133.395 73.9551 132.918 73.6788C132.44 73.4024 132.065 73.0501 131.793 72.6218C131.52 72.1934 131.384 71.6477 131.384 70.9845C131.384 69.9206 131.731 69.1123 132.427 68.5596C133.122 68.0069 134.015 67.7306 135.106 67.7306C135.678 67.7306 136.244 67.8135 136.803 67.9793C137.376 68.1451 137.887 68.38 138.337 68.6839C138.392 68.7116 138.426 68.7599 138.439 68.829C138.453 68.8981 138.446 68.9603 138.419 69.0155L138.01 69.8653C137.983 69.9482 137.928 70.0035 137.846 70.0311C137.778 70.0587 137.703 70.0449 137.621 69.9896C136.749 69.4646 135.91 69.2021 135.106 69.2021C134.438 69.2021 133.913 69.3472 133.531 69.6373C133.163 69.9275 132.979 70.3489 132.979 70.9016C132.979 71.3299 133.081 71.6753 133.286 71.9378C133.49 72.2003 133.736 72.4007 134.022 72.5389C134.308 72.6632 134.765 72.8428 135.392 73.0777C136.197 73.3679 136.831 73.6373 137.294 73.886C137.758 74.1347 138.139 74.4663 138.439 74.8808C138.739 75.2953 138.889 75.8342 138.889 76.4974C138.889 77.5613 138.521 78.4041 137.785 79.0259C137.062 79.6339 136.094 79.9378 134.881 79.9378Z" fill="black"/>
<path d="M146.448 79.7306C145.644 79.7306 144.901 79.5302 144.219 79.1295C143.537 78.7288 142.999 78.1831 142.603 77.4922C142.208 76.7876 142.01 76.0276 142.01 75.2124V72.2487C142.01 71.4335 142.208 70.6805 142.603 69.9896C142.999 69.285 143.537 68.7323 144.219 68.3316C144.901 67.9309 145.644 67.7306 146.448 67.7306C147.253 67.7306 147.996 67.9309 148.677 68.3316C149.359 68.7323 149.898 69.285 150.293 69.9896C150.688 70.6805 150.886 71.4335 150.886 72.2487V73.658C150.886 73.8653 150.811 74.0449 150.661 74.1969C150.525 74.3351 150.354 74.4041 150.15 74.4041H143.606V75.3161C143.606 75.8411 143.728 76.3247 143.974 76.7668C144.233 77.209 144.58 77.5613 145.017 77.8238C145.453 78.0725 145.93 78.1969 146.448 78.1969H149.414C149.495 78.1969 149.564 78.2245 149.618 78.2798C149.673 78.3351 149.7 78.4041 149.7 78.487V79.4404C149.7 79.5233 149.673 79.5924 149.618 79.6477C149.564 79.7029 149.495 79.7306 149.414 79.7306H146.448ZM149.291 72.9119V72.1451C149.291 71.62 149.161 71.1364 148.902 70.6943C148.657 70.2522 148.316 69.9067 147.88 69.658C147.444 69.3955 146.966 69.2642 146.448 69.2642C145.93 69.2642 145.453 69.3955 145.017 69.658C144.58 69.9067 144.233 70.2522 143.974 70.6943C143.728 71.1364 143.606 71.62 143.606 72.1451V72.9119H149.291Z" fill="black"/>
<path d="M157.182 80C156.133 80 155.274 79.7029 154.606 79.1088C153.938 78.5009 153.604 77.7064 153.604 76.7254C153.604 75.8135 153.903 75.0604 154.503 74.4663C155.117 73.8722 155.969 73.4991 157.06 73.3472L159.718 72.9741C160.114 72.9188 160.4 72.7876 160.577 72.5803C160.755 72.3592 160.843 72.0484 160.843 71.6477V71.4819C160.843 70.8187 160.584 70.2867 160.066 69.886C159.562 69.4715 158.928 69.2642 158.164 69.2642C157.564 69.2642 157.039 69.3886 156.589 69.6373C156.153 69.8722 155.805 70.2038 155.546 70.6321C155.437 70.8117 155.301 70.9016 155.137 70.9016C155.056 70.9016 154.967 70.867 154.872 70.7979L154.319 70.4249C154.197 70.3143 154.135 70.1969 154.135 70.0725C154.135 70.0173 154.156 69.9482 154.197 69.8653C154.592 69.2021 155.131 68.6839 155.812 68.3109C156.508 67.924 157.305 67.7306 158.205 67.7306C159.023 67.7306 159.753 67.8895 160.393 68.2073C161.034 68.5112 161.525 68.9465 161.866 69.513C162.22 70.0794 162.398 70.7358 162.398 71.4819V79.4404C162.398 79.5233 162.37 79.5924 162.316 79.6477C162.261 79.7029 162.193 79.7306 162.111 79.7306H161.252C161.17 79.7306 161.102 79.7029 161.048 79.6477C160.993 79.5924 160.966 79.5233 160.966 79.4404V78.0104C160.543 78.6321 159.998 79.1226 159.33 79.4819C158.675 79.8273 157.96 80 157.182 80ZM157.346 78.5492C158.014 78.5492 158.621 78.3696 159.166 78.0104C159.712 77.6511 160.134 77.2021 160.434 76.6632C160.748 76.1105 160.905 75.5717 160.905 75.0466V74.1969C160.577 74.2383 159.528 74.3834 157.755 74.6321L157.182 74.715C155.819 74.9223 155.137 75.5717 155.137 76.6632C155.137 77.2297 155.342 77.6857 155.751 78.0311C156.16 78.3765 156.692 78.5492 157.346 78.5492Z" fill="black"/>
<path d="M165.95 79.7306C165.868 79.7306 165.8 79.7029 165.745 79.6477C165.691 79.5924 165.663 79.5233 165.663 79.4404V78.487C165.663 78.4041 165.691 78.3351 165.745 78.2798C165.8 78.2245 165.868 78.1969 165.95 78.1969H167.647V69.4715H165.95C165.868 69.4715 165.8 69.4439 165.745 69.3886C165.691 69.3333 165.663 69.2642 165.663 69.1813V68.2902C165.663 68.2073 165.691 68.1382 165.745 68.0829C165.8 68.0276 165.868 68 165.95 68H168.506C168.711 68 168.881 68.076 169.017 68.228C169.167 68.3661 169.242 68.5389 169.242 68.7461V69.7824L170.428 68.8497C170.919 68.4629 171.315 68.2073 171.615 68.0829C171.928 67.9447 172.255 67.8756 172.596 67.8756H173.21C173.305 67.8756 173.373 67.9033 173.414 67.9586C173.469 68.0138 173.496 68.0829 173.496 68.1658V69.1813C173.496 69.2642 173.469 69.3333 173.414 69.3886C173.36 69.4439 173.292 69.4715 173.21 69.4715H172.76C172.419 69.4715 172.099 69.5475 171.799 69.6995C171.499 69.8377 171.049 70.1485 170.449 70.6321L169.242 71.6062V78.1969H171.615C171.696 78.1969 171.765 78.2245 171.819 78.2798C171.874 78.3351 171.901 78.4041 171.901 78.487V79.4404C171.901 79.5233 171.874 79.5924 171.819 79.6477C171.765 79.7029 171.696 79.7306 171.615 79.7306H165.95Z" fill="black"/>
<path d="M180.291 80C179.486 80 178.743 79.7997 178.062 79.399C177.38 78.9983 176.841 78.4525 176.446 77.7617C176.051 77.057 175.853 76.2971 175.853 75.4819V72.2487C175.853 71.4335 176.051 70.6805 176.446 69.9896C176.841 69.285 177.38 68.7323 178.062 68.3316C178.743 67.9309 179.486 67.7306 180.291 67.7306C180.877 67.7306 181.429 67.8411 181.947 68.0622C182.479 68.2832 182.943 68.5872 183.338 68.9741C183.42 69.057 183.461 69.1537 183.461 69.2642C183.461 69.361 183.42 69.4646 183.338 69.5751C183.202 69.7271 183.045 69.886 182.868 70.0518C182.772 70.1347 182.67 70.1762 182.561 70.1762C182.438 70.1762 182.329 70.1278 182.234 70.0311C181.688 69.5199 181.041 69.2642 180.291 69.2642C179.773 69.2642 179.295 69.3955 178.859 69.658C178.423 69.9067 178.075 70.2522 177.816 70.6943C177.571 71.1364 177.448 71.62 177.448 72.1451V75.5855C177.448 76.1105 177.571 76.5941 177.816 77.0363C178.075 77.4784 178.423 77.8307 178.859 78.0933C179.295 78.342 179.773 78.4663 180.291 78.4663C181.041 78.4663 181.688 78.2107 182.234 77.6995C182.329 77.6028 182.438 77.5544 182.561 77.5544C182.67 77.5544 182.772 77.5959 182.868 77.6788C183.031 77.8169 183.188 77.9758 183.338 78.1554C183.42 78.2383 183.461 78.342 183.461 78.4663C183.461 78.5769 183.42 78.6736 183.338 78.7565C182.943 79.1434 182.479 79.4473 181.947 79.6684C181.429 79.8895 180.877 80 180.291 80Z" fill="black"/>
<path d="M187.432 79.7306C187.35 79.7306 187.282 79.7029 187.228 79.6477C187.173 79.5924 187.146 79.5233 187.146 79.4404V64.2902C187.146 64.2073 187.173 64.1382 187.228 64.0829C187.282 64.0276 187.35 64 187.432 64H188.455C188.536 64 188.605 64.0276 188.659 64.0829C188.714 64.1382 188.741 64.2073 188.741 64.2902V69.4508C189.095 68.8843 189.552 68.456 190.111 68.1658C190.684 67.8756 191.325 67.7306 192.034 67.7306C193.192 67.7306 194.126 68.0898 194.835 68.8083C195.558 69.5268 195.919 70.4732 195.919 71.6477V79.4404C195.919 79.5233 195.892 79.5924 195.837 79.6477C195.783 79.7029 195.715 79.7306 195.633 79.7306H194.61C194.529 79.7306 194.46 79.7029 194.406 79.6477C194.351 79.5924 194.324 79.5233 194.324 79.4404V71.9585C194.324 71.0743 194.092 70.4041 193.629 69.9482C193.179 69.4784 192.565 69.2435 191.788 69.2435C190.875 69.2435 190.138 69.5475 189.579 70.1554C189.02 70.7634 188.741 71.5993 188.741 72.6632V79.4404C188.741 79.5233 188.714 79.5924 188.659 79.6477C188.605 79.7029 188.536 79.7306 188.455 79.7306H187.432Z" fill="black"/>
<path d="M217.889 83.7306C216.431 83.7306 215.313 83.1226 214.535 81.9067L212.961 79.4197C212.047 79.8066 211.093 80 210.098 80C208.721 80 207.609 79.6684 206.764 79.0052C205.932 78.3282 205.517 77.3955 205.517 76.2073C205.517 75.4059 205.735 74.7012 206.171 74.0933C206.621 73.4853 207.33 72.7945 208.298 72.0207C207.916 71.3851 207.609 70.7841 207.378 70.2176C207.159 69.6511 207.05 69.057 207.05 68.4352C207.05 67.7582 207.2 67.1641 207.5 66.6529C207.8 66.1416 208.202 65.7478 208.707 65.4715C209.211 65.1952 209.757 65.057 210.343 65.057C210.902 65.057 211.406 65.1813 211.856 65.4301C212.32 65.6788 212.681 66.0173 212.94 66.4456C213.199 66.8601 213.329 67.323 213.329 67.8342C213.329 68.525 213.077 69.1952 212.572 69.8446C212.081 70.494 211.311 71.2746 210.261 72.1865L213.533 77.3679C214.201 76.8428 214.726 76.1934 215.108 75.4197C215.49 74.6321 215.681 73.8031 215.681 72.9326C215.681 72.8497 215.708 72.7807 215.763 72.7254C215.817 72.6701 215.885 72.6425 215.967 72.6425H216.949C217.031 72.6425 217.099 72.6701 217.153 72.7254C217.221 72.7807 217.255 72.8428 217.255 72.9119C217.255 74.0864 216.99 75.171 216.458 76.1658C215.94 77.1606 215.231 77.9896 214.331 78.6529L215.558 80.5803C215.981 81.2159 216.369 81.6511 216.724 81.886C217.078 82.1209 217.569 82.2383 218.196 82.2383H218.748C218.83 82.2383 218.898 82.266 218.953 82.3212C219.007 82.3765 219.035 82.4456 219.035 82.5285V83.4404C219.035 83.5233 219.007 83.5924 218.953 83.6477C218.898 83.7029 218.83 83.7306 218.748 83.7306H217.889ZM209.505 71.0052C210.404 70.2314 211.018 69.6373 211.345 69.2228C211.686 68.7945 211.856 68.3731 211.856 67.9586C211.856 67.5302 211.706 67.1779 211.406 66.9016C211.107 66.6114 210.725 66.4663 210.261 66.4663C209.77 66.4663 209.375 66.639 209.075 66.9845C208.775 67.3161 208.625 67.772 208.625 68.3523C208.625 69.1537 208.918 70.038 209.505 71.0052ZM210.241 78.487C210.922 78.487 211.556 78.3696 212.143 78.1347L209.034 73.2435C208.366 73.7962 207.875 74.2798 207.562 74.6943C207.262 75.095 207.112 75.5579 207.112 76.0829C207.112 76.8705 207.398 77.4715 207.971 77.886C208.557 78.2867 209.314 78.487 210.241 78.487Z" fill="black"/>
<path d="M230.796 79.7306C230.687 79.7306 230.578 79.696 230.468 79.6269C230.373 79.5579 230.312 79.468 230.284 79.3575L226.296 65.7617C226.283 65.734 226.276 65.6995 226.276 65.658C226.276 65.5613 226.31 65.4853 226.378 65.4301C226.446 65.361 226.528 65.3264 226.624 65.3264H227.687C227.783 65.3264 227.864 65.3541 227.933 65.4093C228.001 65.4646 228.048 65.5337 228.076 65.6166L231.368 77.2642L234.661 65.6166C234.688 65.5337 234.736 65.4646 234.804 65.4093C234.872 65.3541 234.954 65.3264 235.05 65.3264H236.113C236.208 65.3264 236.29 65.3541 236.358 65.4093C236.427 65.4646 236.474 65.5337 236.502 65.6166L239.794 77.2642L243.087 65.6166C243.114 65.5337 243.162 65.4646 243.23 65.4093C243.298 65.3541 243.38 65.3264 243.475 65.3264H244.539C244.648 65.3264 244.737 65.3748 244.805 65.4715C244.873 65.5544 244.893 65.6511 244.866 65.7617L240.878 79.3575C240.851 79.468 240.783 79.5579 240.674 79.6269C240.578 79.696 240.476 79.7306 240.367 79.7306H239.222C239.112 79.7306 239.003 79.696 238.894 79.6269C238.799 79.5579 238.738 79.468 238.71 79.3575L235.561 68.2694L232.452 79.3575C232.425 79.468 232.357 79.5579 232.248 79.6269C232.152 79.696 232.05 79.7306 231.941 79.7306H230.796Z" fill="black"/>
<path d="M251.551 79.7306C250.746 79.7306 250.003 79.5302 249.322 79.1295C248.64 78.7288 248.101 78.1831 247.706 77.4922C247.311 76.7876 247.113 76.0276 247.113 75.2124V72.2487C247.113 71.4335 247.311 70.6805 247.706 69.9896C248.101 69.285 248.64 68.7323 249.322 68.3316C250.003 67.9309 250.746 67.7306 251.551 67.7306C252.355 67.7306 253.098 67.9309 253.78 68.3316C254.462 68.7323 255 69.285 255.396 69.9896C255.791 70.6805 255.989 71.4335 255.989 72.2487V73.658C255.989 73.8653 255.914 74.0449 255.764 74.1969C255.627 74.3351 255.457 74.4041 255.252 74.4041H248.708V75.3161C248.708 75.8411 248.831 76.3247 249.076 76.7668C249.335 77.209 249.683 77.5613 250.119 77.8238C250.556 78.0725 251.033 78.1969 251.551 78.1969H254.516C254.598 78.1969 254.666 78.2245 254.721 78.2798C254.775 78.3351 254.803 78.4041 254.803 78.487V79.4404C254.803 79.5233 254.775 79.5924 254.721 79.6477C254.666 79.7029 254.598 79.7306 254.516 79.7306H251.551ZM254.394 72.9119V72.1451C254.394 71.62 254.264 71.1364 254.005 70.6943C253.76 70.2522 253.419 69.9067 252.982 69.658C252.546 69.3955 252.069 69.2642 251.551 69.2642C251.033 69.2642 250.556 69.3955 250.119 69.658C249.683 69.9067 249.335 70.2522 249.076 70.6943C248.831 71.1364 248.708 71.62 248.708 72.1451V72.9119H254.394Z" fill="black"/>
<path d="M264.346 80C263.746 80 263.173 79.8826 262.628 79.6477C262.096 79.399 261.633 79.0605 261.237 78.6321V79.4404C261.237 79.5233 261.21 79.5924 261.156 79.6477C261.101 79.7029 261.033 79.7306 260.951 79.7306H260.01C259.928 79.7306 259.86 79.7029 259.806 79.6477C259.751 79.5924 259.724 79.5233 259.724 79.4404V64.2902C259.724 64.2073 259.751 64.1382 259.806 64.0829C259.86 64.0276 259.928 64 260.01 64H261.033C261.115 64 261.183 64.0276 261.237 64.0829C261.292 64.1382 261.319 64.2073 261.319 64.2902V69.1813C261.701 68.7254 262.151 68.3731 262.669 68.1244C263.201 67.8618 263.76 67.7306 264.346 67.7306C265.123 67.7306 265.839 67.924 266.493 68.3109C267.148 68.6978 267.666 69.2228 268.048 69.886C268.429 70.5492 268.62 71.2746 268.62 72.0622V75.6684C268.62 76.456 268.429 77.1813 268.048 77.8446C267.666 78.5078 267.148 79.0328 266.493 79.4197C265.839 79.8066 265.123 80 264.346 80ZM264.182 78.4663C264.7 78.4663 265.178 78.342 265.614 78.0933C266.05 77.8307 266.391 77.4784 266.636 77.0363C266.895 76.5941 267.025 76.1105 267.025 75.5855V72.1451C267.025 71.62 266.895 71.1364 266.636 70.6943C266.391 70.2522 266.05 69.9067 265.614 69.658C265.178 69.3955 264.7 69.2642 264.182 69.2642C263.664 69.2642 263.18 69.3955 262.73 69.658C262.294 69.9067 261.946 70.2522 261.687 70.6943C261.442 71.1364 261.319 71.62 261.319 72.1451V75.5855C261.319 76.1105 261.442 76.5941 261.687 77.0363C261.946 77.4784 262.294 77.8307 262.73 78.0933C263.18 78.342 263.664 78.4663 264.182 78.4663Z" fill="black"/>
<path d="M276.366 80C275.588 80 274.873 79.8066 274.218 79.4197C273.564 79.0328 273.046 78.5078 272.664 77.8446C272.282 77.1813 272.091 76.456 272.091 75.6684V72.0622C272.091 71.2746 272.282 70.5492 272.664 69.886C273.046 69.2228 273.564 68.6978 274.218 68.3109C274.886 67.924 275.609 67.7306 276.386 67.7306C276.945 67.7306 277.484 67.8342 278.002 68.0415C278.533 68.2487 278.997 68.5389 279.392 68.9119V64.2902C279.392 64.2073 279.42 64.1382 279.474 64.0829C279.529 64.0276 279.597 64 279.679 64H280.701C280.783 64 280.851 64.0276 280.906 64.0829C280.96 64.1382 280.987 64.2073 280.987 64.2902V79.4404C280.987 79.5233 280.96 79.5924 280.906 79.6477C280.851 79.7029 280.783 79.7306 280.701 79.7306H279.76C279.679 79.7306 279.61 79.7029 279.556 79.6477C279.501 79.5924 279.474 79.5233 279.474 79.4404V78.5285C279.092 78.9983 278.629 79.3644 278.083 79.6269C277.552 79.8756 276.979 80 276.366 80ZM276.529 78.4663C277.047 78.4663 277.524 78.342 277.961 78.0933C278.411 77.8307 278.758 77.4784 279.004 77.0363C279.263 76.5941 279.392 76.1105 279.392 75.5855V72.1451C279.392 71.62 279.263 71.1364 279.004 70.6943C278.758 70.2522 278.411 69.9067 277.961 69.658C277.524 69.3955 277.047 69.2642 276.529 69.2642C276.011 69.2642 275.534 69.3955 275.098 69.658C274.661 69.9067 274.314 70.2522 274.055 70.6943C273.809 71.1364 273.686 71.62 273.686 72.1451V75.5855C273.686 76.1105 273.809 76.5941 274.055 77.0363C274.314 77.4784 274.661 77.8307 275.098 78.0933C275.534 78.342 276.011 78.4663 276.529 78.4663Z" fill="black"/>
<path d="M289.408 79.7306C288.603 79.7306 287.86 79.5302 287.179 79.1295C286.497 78.7288 285.958 78.1831 285.563 77.4922C285.168 76.7876 284.97 76.0276 284.97 75.2124V72.2487C284.97 71.4335 285.168 70.6805 285.563 69.9896C285.958 69.285 286.497 68.7323 287.179 68.3316C287.86 67.9309 288.603 67.7306 289.408 67.7306C290.212 67.7306 290.955 67.9309 291.637 68.3316C292.319 68.7323 292.857 69.285 293.253 69.9896C293.648 70.6805 293.846 71.4335 293.846 72.2487V73.658C293.846 73.8653 293.771 74.0449 293.621 74.1969C293.484 74.3351 293.314 74.4041 293.109 74.4041H286.565V75.3161C286.565 75.8411 286.688 76.3247 286.933 76.7668C287.192 77.209 287.54 77.5613 287.976 77.8238C288.412 78.0725 288.89 78.1969 289.408 78.1969H292.373C292.455 78.1969 292.523 78.2245 292.578 78.2798C292.632 78.3351 292.659 78.4041 292.659 78.487V79.4404C292.659 79.5233 292.632 79.5924 292.578 79.6477C292.523 79.7029 292.455 79.7306 292.373 79.7306H289.408ZM292.25 72.9119V72.1451C292.25 71.62 292.121 71.1364 291.862 70.6943C291.616 70.2522 291.276 69.9067 290.839 69.658C290.403 69.3955 289.926 69.2642 289.408 69.2642C288.89 69.2642 288.412 69.3955 287.976 69.658C287.54 69.9067 287.192 70.2522 286.933 70.6943C286.688 71.1364 286.565 71.62 286.565 72.1451V72.9119H292.25Z" fill="black"/>
<path d="M300.362 79.9378C299.735 79.9378 299.121 79.8549 298.522 79.6891C297.922 79.5233 297.404 79.2815 296.967 78.9637C296.913 78.9361 296.872 78.8946 296.845 78.8394C296.831 78.7703 296.838 78.7012 296.865 78.6321L297.295 77.7617C297.363 77.6511 297.451 77.5959 297.56 77.5959C297.588 77.5959 297.642 77.6097 297.724 77.6373C298.624 78.19 299.531 78.4663 300.444 78.4663C301.167 78.4663 301.732 78.3074 302.141 77.9896C302.564 77.658 302.775 77.1952 302.775 76.601C302.775 76.2418 302.68 75.9516 302.489 75.7306C302.312 75.4957 302.073 75.3092 301.773 75.171C301.473 75.019 301.003 74.8187 300.362 74.5699C299.53 74.2522 298.876 73.9551 298.399 73.6788C297.922 73.4024 297.547 73.0501 297.274 72.6218C297.001 72.1934 296.865 71.6477 296.865 70.9845C296.865 69.9206 297.213 69.1123 297.908 68.5596C298.603 68.0069 299.496 67.7306 300.587 67.7306C301.16 67.7306 301.726 67.8135 302.285 67.9793C302.857 68.1451 303.368 68.38 303.818 68.6839C303.873 68.7116 303.907 68.7599 303.921 68.829C303.934 68.8981 303.927 68.9603 303.9 69.0155L303.491 69.8653C303.464 69.9482 303.409 70.0035 303.328 70.0311C303.259 70.0587 303.184 70.0449 303.103 69.9896C302.23 69.4646 301.392 69.2021 300.587 69.2021C299.919 69.2021 299.394 69.3472 299.012 69.6373C298.644 69.9275 298.46 70.3489 298.46 70.9016C298.46 71.3299 298.562 71.6753 298.767 71.9378C298.972 72.2003 299.217 72.4007 299.503 72.5389C299.79 72.6632 300.246 72.8428 300.873 73.0777C301.678 73.3679 302.312 73.6373 302.775 73.886C303.239 74.1347 303.621 74.4663 303.921 74.8808C304.221 75.2953 304.371 75.8342 304.371 76.4974C304.371 77.5613 304.002 78.4041 303.266 79.0259C302.544 79.6339 301.576 79.9378 300.362 79.9378Z" fill="black"/>
<path d="M309.703 66.3834C309.621 66.3834 309.553 66.3558 309.498 66.3005C309.444 66.2453 309.416 66.1762 309.416 66.0933V64.2902C309.416 64.2073 309.444 64.1382 309.498 64.0829C309.553 64.0276 309.621 64 309.703 64H310.684C310.766 64 310.834 64.0276 310.889 64.0829C310.943 64.1382 310.971 64.2073 310.971 64.2902V66.0933C310.971 66.1762 310.943 66.2453 310.889 66.3005C310.834 66.3558 310.766 66.3834 310.684 66.3834H309.703ZM310.132 79.7306C309.928 79.7306 309.75 79.6615 309.6 79.5233C309.464 79.3713 309.396 79.1917 309.396 78.9845V69.5337H307.269C307.187 69.5337 307.119 69.506 307.065 69.4508C307.01 69.3955 306.983 69.3264 306.983 69.2435V68.2902C306.983 68.2073 307.01 68.1382 307.065 68.0829C307.119 68.0276 307.187 68 307.269 68H310.255C310.459 68 310.63 68.076 310.766 68.228C310.916 68.3661 310.991 68.5389 310.991 68.7461V78.1969H313.098C313.179 78.1969 313.248 78.2245 313.302 78.2798C313.357 78.3351 313.384 78.4041 313.384 78.487V79.4404C313.384 79.5233 313.357 79.5924 313.302 79.6477C313.248 79.7029 313.179 79.7306 313.098 79.7306H310.132Z" fill="black"/>
<path d="M320.413 84C319.118 84 318.061 83.7582 317.243 83.2746C316.439 82.791 316.036 82.0725 316.036 81.1192C316.036 80.6356 316.145 80.1727 316.364 79.7306C316.582 79.2884 316.875 78.9223 317.243 78.6321C316.902 78.3972 316.65 78.1624 316.486 77.9275C316.336 77.6788 316.261 77.3817 316.261 77.0363C316.261 76.6079 316.377 76.2003 316.609 75.8135C316.854 75.4266 317.182 75.1019 317.591 74.8394C317.127 74.4801 316.766 74.038 316.507 73.513C316.248 72.9741 316.118 72.38 316.118 71.7306C316.118 70.943 316.302 70.2453 316.67 69.6373C317.052 69.0294 317.563 68.5596 318.204 68.228C318.845 67.8964 319.554 67.7306 320.331 67.7306C320.863 67.7306 321.395 67.8204 321.926 68H325.976C326.057 68 326.126 68.0276 326.18 68.0829C326.235 68.1382 326.262 68.2073 326.262 68.2902V69.2435C326.262 69.3264 326.235 69.3955 326.18 69.4508C326.126 69.506 326.057 69.5337 325.976 69.5337H323.91C324.333 70.1554 324.544 70.8877 324.544 71.7306C324.544 72.5181 324.353 73.2159 323.971 73.8238C323.603 74.4318 323.099 74.9016 322.458 75.2332C321.817 75.5648 321.108 75.7306 320.331 75.7306C319.813 75.7306 319.274 75.6408 318.715 75.4611C318.415 75.5993 318.184 75.7789 318.02 76C317.856 76.2211 317.775 76.456 317.775 76.7047C317.775 77.0225 317.911 77.2573 318.184 77.4093C318.402 77.5337 318.722 77.6235 319.145 77.6788C319.568 77.734 320.229 77.8031 321.129 77.886L321.926 77.9482C322.581 78.0035 323.14 78.0933 323.603 78.2176C324.08 78.342 324.483 78.5838 324.81 78.943C325.151 79.3022 325.321 79.8273 325.321 80.5181C325.321 81.6511 324.864 82.5147 323.951 83.1088C323.037 83.7029 321.858 84 320.413 84ZM320.331 74.3005C321.135 74.3005 321.776 74.0656 322.253 73.5959C322.744 73.1123 322.99 72.4905 322.99 71.7306C322.99 70.9706 322.744 70.3558 322.253 69.886C321.776 69.4024 321.135 69.1606 320.331 69.1606C319.527 69.1606 318.879 69.4024 318.388 69.886C317.911 70.3558 317.672 70.9706 317.672 71.7306C317.672 72.4905 317.911 73.1123 318.388 73.5959C318.879 74.0656 319.527 74.3005 320.331 74.3005ZM320.597 82.5699C321.551 82.5699 322.328 82.418 322.928 82.114C323.528 81.81 323.828 81.3333 323.828 80.6839C323.828 80.3523 323.74 80.1036 323.562 79.9378C323.399 79.772 323.167 79.6615 322.867 79.6062C322.581 79.5371 322.151 79.475 321.579 79.4197C321.456 79.4059 321.163 79.3851 320.699 79.3575C320.249 79.3161 319.752 79.2608 319.206 79.1917C318.879 79.1503 318.606 79.1088 318.388 79.0674C318.116 79.2746 317.897 79.5302 317.734 79.8342C317.584 80.1382 317.509 80.4491 317.509 80.7668C317.509 81.4024 317.795 81.8584 318.368 82.1347C318.954 82.4249 319.697 82.5699 320.597 82.5699Z" fill="black"/>
<path d="M329.513 79.7098C329.431 79.7098 329.363 79.6822 329.308 79.6269C329.254 79.5717 329.226 79.5026 329.226 79.4197V68.2902C329.226 68.2073 329.254 68.1382 329.308 68.0829C329.363 68.0276 329.431 68 329.513 68H330.535C330.617 68 330.685 68.0276 330.74 68.0829C330.794 68.1382 330.822 68.2073 330.822 68.2902V69.4301C331.176 68.8636 331.633 68.4352 332.192 68.1451C332.765 67.8549 333.405 67.7098 334.114 67.7098C335.273 67.7098 336.207 68.0691 336.916 68.7876C337.639 69.506 338 70.4525 338 71.6269V79.4197C338 79.5026 337.973 79.5717 337.918 79.6269C337.864 79.6822 337.795 79.7098 337.714 79.7098H336.691C336.609 79.7098 336.541 79.6822 336.487 79.6269C336.432 79.5717 336.405 79.5026 336.405 79.4197V71.9378C336.405 71.0535 336.173 70.3834 335.709 69.9275C335.26 69.4577 334.646 69.2228 333.869 69.2228C332.955 69.2228 332.219 69.5268 331.66 70.1347C331.101 70.7427 330.822 71.5786 330.822 72.6425V79.4197C330.822 79.5026 330.794 79.5717 330.74 79.6269C330.685 79.6822 330.617 79.7098 330.535 79.7098H329.513Z" fill="black"/>
</svg>
